<?xml version="1.0" standalone="no"?>
<!DOCTYPE svg PUBLIC "-//W3C//DTD SVG 20010904//EN"
 "http://www.w3.org/TR/2001/REC-SVG-20010904/DTD/svg10.dtd">
<svg version="1.0" xmlns="http://www.w3.org/2000/svg"
 width="433.000000pt" height="577.000000pt" viewBox="0 0 433.000000 577.000000"
 preserveAspectRatio="xMidYMid meet">

<g transform="translate(0.000000,577.000000) scale(0.100000,-0.100000)"
fill="#000000" stroke="none">
<path d="M2002 5585 c-14 -7 -19 -15 -13 -19 5 -4 20 -1 31 6 19 12 25 10 51
-22 16 -19 29 -29 29 -23 0 14 -55 73 -67 72 -4 -1 -19 -7 -31 -14z"/>
<path d="M1874 5565 c-22 -13 -47 -29 -56 -35 -14 -8 -18 -7 -18 5 0 8 -2 15
-5 15 -8 0 -42 -36 -48 -51 -4 -10 -6 -9 -6 4 -1 24 -17 21 -24 -4 -4 -15 -11
-19 -25 -15 -13 4 -22 1 -26 -9 -3 -8 -13 -15 -22 -15 -9 0 -27 -9 -41 -20
-24 -19 -28 -19 -49 -5 -13 8 -33 15 -44 15 -12 0 -30 5 -40 10 -15 8 -30 4
-67 -18 -57 -33 -86 -82 -79 -130 3 -23 1 -32 -7 -29 -7 3 -11 10 -9 16 4 21
-13 11 -33 -19 -11 -17 -30 -33 -42 -36 -13 -4 -23 -9 -23 -13 0 -4 -18 -8
-40 -9 -37 -3 -40 -1 -40 23 0 39 -17 30 -42 -25 -15 -32 -29 -50 -40 -50 -10
0 -18 6 -18 14 0 9 -8 13 -22 11 -43 -5 -57 -17 -64 -50 -7 -39 1 -68 24 -92
16 -16 16 -16 0 -10 -10 3 -20 2 -23 -3 -4 -6 -17 -10 -29 -10 -26 0 -76 -35
-76 -54 0 -6 -15 -16 -32 -21 -25 -8 -35 -18 -43 -43 -6 -20 -14 -31 -22 -28
-16 6 -17 -16 -2 -31 16 -16 1 -35 -20 -28 -37 11 -51 -4 -51 -56 0 -42 -3
-49 -20 -49 -12 0 -22 9 -26 24 -9 38 -64 43 -64 6 0 -10 -9 -26 -21 -34 -12
-8 -18 -19 -15 -24 3 -6 0 -12 -9 -14 -16 -3 -10 -17 27 -70 10 -13 21 -38 24
-56 5 -25 3 -32 -10 -32 -10 0 -16 -9 -16 -25 0 -13 -9 -33 -21 -44 -13 -12
-17 -21 -10 -26 6 -3 11 -11 11 -16 0 -6 -4 -7 -10 -4 -5 3 -26 -4 -47 -15
-21 -12 -29 -18 -18 -14 45 15 55 16 55 6 0 -15 -50 -44 -66 -38 -8 3 -14 -1
-14 -9 0 -8 8 -15 18 -15 16 -1 16 -1 -1 -11 -13 -8 -22 -7 -33 2 -8 7 -14 8
-13 3 6 -31 -3 -38 -20 -16 -11 12 -22 22 -25 22 -8 0 -36 -57 -35 -72 0 -7 7
2 15 20 21 47 38 41 29 -10 -4 -24 -7 -64 -7 -89 0 -40 -5 -52 -44 -95 -24
-27 -47 -59 -50 -71 -8 -29 3 -73 17 -73 6 0 8 9 3 22 -6 19 -5 21 8 11 8 -7
18 -10 21 -7 9 9 -21 36 -33 29 -5 -3 -10 1 -10 10 0 9 5 13 10 10 6 -3 10 -1
10 5 0 6 5 8 10 5 6 -4 8 -10 5 -15 -3 -4 6 -7 20 -6 33 1 32 11 -5 26 l-29
12 34 36 c36 38 43 39 48 4 2 -12 6 -25 10 -28 10 -11 8 -36 -2 -30 -5 3 -18
-9 -29 -28 -17 -28 -18 -35 -6 -40 8 -3 11 -12 8 -21 -5 -12 -9 -13 -20 -4 -8
6 -14 8 -14 3 0 -5 -4 -2 -10 6 -7 11 -11 9 -19 -13 -13 -35 -13 -61 0 -29 5
13 13 20 19 17 6 -4 7 -11 4 -17 -6 -10 -14 -54 -15 -83 0 -5 4 -28 10 -50 12
-46 7 -71 -15 -79 -9 -4 -12 -2 -8 5 4 7 -4 10 -22 7 -26 -3 -39 -15 -60 -56
-3 -7 2 -22 12 -33 17 -19 28 -20 67 -4 13 6 17 2 17 -15 0 -17 -4 -21 -17
-16 -15 5 -15 4 1 -9 14 -10 23 -12 32 -4 7 6 30 9 50 7 34 -3 40 -7 48 -35 6
-23 15 -33 28 -33 11 0 25 -6 32 -13 17 -17 16 -47 -1 -47 -8 0 -11 -5 -8 -10
4 -6 11 -8 16 -5 5 4 9 1 9 -6 0 -8 4 -8 15 1 9 7 15 8 15 2 0 -13 -26 -23
-45 -16 -10 4 -15 0 -15 -11 0 -10 -5 -13 -12 -9 -6 4 -8 3 -4 -4 3 -6 2 -13
-3 -17 -5 -3 -9 -13 -9 -23 1 -9 -2 -27 -6 -38 -4 -14 -1 -27 9 -37 22 -22 19
-47 -6 -47 -11 0 -17 -5 -14 -10 3 -6 -1 -17 -9 -26 -18 -18 -21 -40 -6 -49 6
-3 10 3 10 14 0 25 16 36 24 15 4 -10 2 -13 -6 -8 -7 4 -8 3 -4 -4 4 -6 13 -9
20 -6 8 3 17 1 21 -5 3 -6 16 -11 28 -12 15 -1 10 -4 -12 -9 -19 -5 -40 -6
-48 -3 -7 3 -13 1 -13 -5 0 -5 -7 -13 -16 -16 -8 -3 -12 -2 -9 3 3 5 -4 12
-15 16 -11 3 -20 11 -20 16 0 5 -4 9 -10 9 -18 0 -11 -20 15 -46 15 -15 32
-23 41 -20 9 4 12 2 8 -5 -4 -7 -1 -10 7 -7 8 3 14 11 13 19 -1 8 9 15 22 15
23 2 24 -15 1 -43 -7 -10 -4 -13 12 -13 21 0 29 -24 11 -35 -15 -9 -12 -25 4
-19 8 3 16 14 19 25 3 12 14 19 29 19 16 0 19 -3 10 -9 -8 -4 -13 -11 -13 -15
3 -18 0 -20 -9 -6 -8 13 -10 12 -10 -3 0 -21 30 -77 42 -77 4 0 5 -7 2 -15 -6
-14 -8 -13 -20 2 -12 16 -12 16 -7 -7 6 -22 5 -24 -10 -11 -9 7 -17 22 -17 33
0 18 -2 19 -16 7 -15 -12 -13 -16 17 -42 19 -15 42 -26 52 -23 25 6 21 -9 -8
-24 -14 -7 -25 -18 -24 -24 1 -6 1 -20 0 -30 -1 -18 -2 -18 -21 -1 -26 23 -25
27 8 47 15 10 22 18 15 18 -6 0 -15 -4 -18 -10 -3 -5 -15 -10 -26 -10 -10 0
-19 -4 -19 -9 0 -20 68 -107 100 -129 19 -13 35 -29 35 -35 0 -7 9 -13 21 -15
25 -4 61 -58 42 -65 -7 -2 -6 -3 2 -2 8 2 23 6 32 10 15 6 17 1 16 -29 -1 -20
-7 -41 -14 -47 -10 -8 -11 -16 -4 -29 6 -10 10 -32 10 -48 0 -16 7 -35 15 -42
19 -16 19 -30 0 -30 -11 0 -13 -8 -8 -31 5 -25 2 -31 -16 -36 -12 -3 -28 -18
-36 -34 -18 -34 -18 -39 -3 -39 6 0 8 3 5 7 -12 11 35 53 60 53 16 0 27 -8 33
-26 11 -29 3 -74 -13 -74 -6 0 -1 -7 11 -16 30 -20 29 -54 0 -54 -13 0 -18 -4
-12 -8 6 -4 14 -15 17 -26 4 -10 13 -16 21 -13 17 7 28 -16 20 -38 -4 -8 -1
-15 5 -15 18 0 13 -25 -10 -46 -19 -17 -19 -19 -3 -31 16 -11 16 -13 1 -19
-25 -9 -21 -21 11 -32 25 -10 23 -11 -23 -13 -27 -1 -40 -4 -27 -6 21 -4 22
-8 22 -124 0 -112 -1 -119 -20 -119 -23 0 -27 -18 -5 -26 21 -8 19 -21 -5 -29
-15 -5 -19 -12 -14 -29 4 -17 -1 -27 -20 -40 -32 -20 -33 -36 -3 -36 12 0 29
-5 37 -10 12 -7 8 -10 -15 -10 -35 -1 -64 -19 -58 -37 3 -8 -4 -13 -16 -13
-11 0 -23 -4 -26 -10 -9 -14 19 -12 57 4 53 22 200 65 245 72 29 4 44 12 48
25 4 10 16 26 28 36 12 10 32 37 45 60 19 35 22 51 16 88 -7 52 15 124 50 161
12 12 29 32 40 44 18 22 19 22 29 4 6 -10 13 -28 14 -38 2 -11 8 -25 14 -33 9
-10 5 -13 -17 -14 -16 0 -22 -3 -14 -6 42 -15 121 -77 141 -110 12 -21 53 -70
91 -110 38 -39 77 -91 88 -115 24 -56 83 -132 198 -257 50 -55 92 -104 92
-108 0 -5 23 -19 50 -32 41 -20 50 -28 50 -50 0 -14 18 -52 40 -85 22 -32 40
-62 40 -66 0 -15 101 -82 115 -76 15 5 55 70 112 179 35 66 35 66 17 244 -5
52 -3 69 16 105 27 53 84 113 122 129 25 10 31 9 49 -12 14 -17 19 -34 17 -56
-3 -27 0 -33 14 -33 10 0 18 -7 18 -15 0 -8 13 -36 29 -62 17 -27 32 -61 35
-77 3 -16 10 -34 16 -40 23 -23 8 -88 -39 -161 -31 -48 -25 -45 41 19 l62 61
4 73 c7 119 -48 250 -148 352 -23 23 -40 43 -38 45 2 2 19 10 38 18 19 9 46
23 60 31 22 13 83 42 255 121 135 61 265 128 285 145 28 24 21 27 -78 33 -40
2 -78 9 -83 14 -7 7 -3 25 12 52 l22 42 21 -20 c12 -12 26 -21 32 -21 5 0 2 5
-6 11 -11 8 -3 9 31 4 45 -6 101 12 99 31 -1 15 19 64 26 64 3 0 4 -7 0 -15
-3 -8 -3 -15 1 -15 10 0 32 34 33 50 0 13 -1 13 -10 0 -9 -13 -11 -13 -19 0
-12 18 -7 26 19 33 11 3 18 1 14 -4 -3 -5 14 -9 38 -9 33 0 39 -3 28 -11 -11
-7 -3 -8 28 -4 23 4 50 8 60 9 11 2 17 12 17 30 1 16 8 32 16 36 45 25 69 60
69 99 0 31 -4 41 -20 46 -11 3 -20 13 -20 20 0 8 -6 12 -14 9 -10 -4 -14 2
-12 20 1 24 2 25 14 9 11 -15 12 -15 12 4 0 12 -5 25 -11 29 -6 3 -9 15 -6 25
3 10 0 20 -7 23 -7 3 -7 5 2 5 7 1 12 16 12 39 0 48 21 78 60 85 28 6 43 27
19 27 -5 0 -7 5 -4 10 3 6 -2 10 -12 10 -14 0 -11 5 11 19 36 24 45 61 16 68
-29 8 -25 17 13 31 30 12 34 11 55 -13 16 -19 22 -22 22 -10 0 9 6 15 13 14
27 -3 46 2 61 17 20 19 21 41 2 46 -12 2 -12 9 -1 40 7 21 8 35 2 31 -5 -3 -7
0 -5 8 3 8 12 13 20 11 9 -1 18 7 21 18 3 13 11 18 20 14 8 -3 18 -1 22 5 12
20 27 12 20 -10 -5 -15 -4 -19 4 -15 6 4 11 20 11 37 0 19 5 29 15 29 14 0 13
3 -1 25 -9 14 -12 25 -7 25 13 0 9 38 -5 52 -7 7 -12 19 -13 28 0 11 -2 11 -6
2 -3 -9 -14 -3 -34 19 -33 37 -33 38 -15 61 18 25 27 23 59 -14 22 -26 27 -29
25 -13 -2 11 2 19 8 18 6 -1 30 -3 53 -4 22 -2 41 -7 41 -12 0 -5 -9 -7 -19
-4 -10 2 -24 1 -31 -3 -15 -9 -4 -30 16 -30 8 0 14 -4 14 -10 0 -5 7 -7 15 -4
8 4 15 17 15 29 0 13 5 27 10 30 5 3 10 15 10 26 0 14 -7 19 -27 19 -14 0 -24
3 -20 6 3 3 1 18 -5 33 -5 14 -11 39 -14 55 -5 45 -15 67 -25 61 -5 -4 -9 0
-9 7 0 7 -3 23 -6 36 -5 18 -3 21 10 16 8 -3 23 1 31 10 9 9 21 16 26 16 6 0
3 -7 -5 -16 -24 -24 -20 -54 7 -53 20 0 21 1 2 8 -18 7 -18 9 6 24 14 9 35 37
48 61 21 43 21 47 6 82 -9 21 -25 47 -36 57 -26 24 -21 59 9 67 22 5 21 5 -7
18 -46 20 -76 124 -43 149 20 15 72 17 72 3 0 -16 46 -12 60 5 8 9 8 15 2 15
-6 0 -12 -5 -14 -12 -3 -7 -13 -5 -32 7 -26 17 -27 20 -10 26 14 6 15 8 4 9
-10 1 -8 5 6 12 19 9 21 18 20 98 0 72 -3 85 -13 71 -11 -14 -12 -14 -13 5 0
13 10 25 25 32 27 12 32 40 15 73 -6 10 -18 19 -26 19 -8 0 -13 -4 -10 -8 3
-5 -8 -9 -24 -9 -24 0 -27 3 -18 14 8 11 7 12 -5 7 -26 -10 -39 4 -25 29 10
19 9 20 -3 10 -13 -10 -18 -7 -32 17 l-17 29 41 -1 c32 0 44 5 57 23 9 13 17
30 19 37 3 21 13 27 13 8 0 -32 55 -62 58 -32 0 6 4 22 8 36 7 25 7 25 -13 7
-14 -12 -23 -15 -28 -8 -3 6 1 11 10 11 12 0 15 6 10 23 -8 26 -44 67 -58 67
-6 0 -1 -10 11 -23 31 -32 28 -46 -3 -17 -14 13 -24 31 -23 39 5 27 -26 48
-60 43 -20 -2 -32 0 -32 7 0 6 -7 11 -15 11 -18 0 -40 50 -27 59 25 17 -7 101
-40 101 -4 0 -8 8 -8 17 0 13 -3 14 -12 5 -9 -9 -8 -15 8 -27 23 -18 7 -19
-29 -2 -35 16 -34 31 3 74 28 32 30 39 24 81 -7 53 -11 62 -24 62 -5 0 -7 -8
-4 -17 4 -14 3 -13 -8 2 -7 11 -18 35 -23 54 -11 37 -48 53 -59 26 -12 -31
-60 -16 -117 37 -11 10 -19 13 -21 6 -5 -13 -78 -2 -78 11 0 13 -60 32 -74 24
-6 -4 -5 1 3 10 15 19 2 24 -16 6 -27 -27 -89 51 -86 109 0 6 -6 12 -14 12 -8
0 -11 -4 -8 -10 3 -5 2 -10 -4 -10 -5 0 -13 5 -16 10 -3 6 -13 10 -21 10 -9 0
-12 -5 -8 -12 4 -6 3 -8 -3 -5 -21 13 -21 57 -1 68 25 13 78 2 78 -17 0 -8 5
-14 10 -14 6 0 10 6 10 13 0 15 -41 37 -70 37 -10 0 -26 10 -34 22 l-16 22 0
-22 c0 -31 -18 -28 -31 6 -13 33 -59 83 -71 76 -4 -3 -8 0 -8 6 0 8 7 9 18 5
9 -4 26 -10 37 -12 19 -5 19 -5 2 13 -20 21 -75 26 -94 8 -6 -6 -23 -9 -37 -7
-18 4 -26 1 -26 -8 -1 -10 -4 -8 -11 4 -5 9 -15 17 -20 17 -6 0 -7 -4 -4 -10
6 -10 -25 -2 -35 9 -3 3 -23 15 -45 26 -22 11 -47 28 -57 38 -10 9 -25 17 -32
17 -8 0 -35 11 -60 24 -39 21 -45 22 -51 8 -5 -13 -8 -14 -14 -3 -12 18 -61
-14 -61 -40 0 -39 -49 -35 -68 6 -10 21 -16 24 -42 19 -24 -5 -35 -1 -56 19
-14 14 -23 31 -19 37 3 5 1 10 -4 10 -6 0 -11 -7 -11 -16 0 -8 -4 -13 -9 -10
-5 3 -7 15 -4 26 3 11 3 20 1 20 -15 0 -69 -34 -77 -48 -8 -14 -14 -15 -28 -6
-10 7 -16 20 -15 30 3 15 1 16 -12 5 -11 -9 -16 -10 -16 -2 0 16 -16 14 -34
-4 -8 -8 -22 -12 -30 -9 -9 3 -16 1 -16 -5 0 -18 -30 -12 -31 7 0 12 -2 13 -6
3 -3 -8 2 -20 13 -28 17 -12 17 -13 -3 -13 -34 0 -57 -11 -42 -20 7 -5 1 -7
-15 -7 -16 1 -24 7 -21 15 7 19 -10 55 -39 82 -35 34 -33 40 16 40 43 0 47 11
5 15 -14 2 -42 -8 -63 -20z m-114 -105 c0 -5 -5 -10 -11 -10 -5 0 -7 5 -4 10
3 6 8 10 11 10 2 0 4 -4 4 -10z m790 -37 c0 -10 -4 -14 -8 -8 -4 6 -11 13 -16
18 -5 4 -2 7 7 7 10 0 17 -8 17 -17z m17 -5 c-3 -8 -6 -5 -6 6 -1 11 2 17 5
13 3 -3 4 -12 1 -19z m34 9 c-1 -12 -15 -9 -19 4 -3 6 1 10 8 8 6 -3 11 -8 11
-12z m-1144 -3 c-3 -3 -12 -4 -19 -1 -8 3 -5 6 6 6 11 1 17 -2 13 -5z m-52
-42 c-6 -32 -28 -47 -48 -35 -7 4 -6 0 1 -10 13 -16 9 -37 -7 -37 -9 0 -7 45
3 76 6 19 45 46 54 38 2 -1 1 -16 -3 -32z m1245 28 c0 -5 -5 -10 -11 -10 -5 0
-7 5 -4 10 3 6 8 10 11 10 2 0 4 -4 4 -10z m-1053 -22 c-3 -8 -6 -5 -6 6 -1
11 2 17 5 13 3 -3 4 -12 1 -19z m824 12 c5 0 0 -9 -11 -20 -25 -25 -54 -17
-39 12 6 12 17 17 26 14 8 -3 19 -6 24 -6z m399 -110 c0 -5 -4 -10 -10 -10 -5
0 -10 5 -10 10 0 6 5 10 10 10 6 0 10 -4 10 -10z m209 -12 c10 -28 -8 -62 -25
-47 -7 5 -14 23 -16 39 -4 24 -1 30 14 30 10 0 22 -10 27 -22z m-52 -91 c-6
-20 -20 -10 -23 18 -3 28 -2 29 12 10 8 -10 13 -23 11 -28z m-1932 -47 c-3 -5
-13 -10 -22 -10 -9 0 -13 -6 -9 -15 7 -19 -1 -19 -20 0 -21 20 -9 35 27 35 18
0 28 -4 24 -10z m2095 -66 c0 -8 -4 -12 -10 -9 -5 3 -10 10 -10 16 0 5 5 9 10
9 6 0 10 -7 10 -16z m40 -39 c0 -8 5 -15 12 -15 6 0 9 -3 6 -6 -8 -8 -48 14
-48 26 0 6 7 10 15 10 8 0 15 -7 15 -15z m-2363 -131 c-3 -3 -12 -4 -19 -1 -8
3 -5 6 6 6 11 1 17 -2 13 -5z m3 -24 c0 -5 -4 -10 -10 -10 -5 0 -10 5 -10 10
0 6 5 10 10 10 6 0 10 -4 10 -10z m2846 -127 c-10 -10 -19 5 -10 18 6 11 8 11
12 0 2 -7 1 -15 -2 -18z m-1749 -199 c5 -15 100 -16 109 -2 3 5 11 4 18 -1 7
-6 28 -12 46 -13 34 -3 70 -26 63 -40 -2 -4 3 -18 12 -31 8 -13 12 -26 9 -30
-9 -8 51 -37 78 -37 12 0 41 -7 65 -16 40 -16 44 -15 86 5 37 18 47 19 70 8
15 -6 27 -15 27 -19 0 -5 8 -8 17 -8 35 0 83 -24 83 -42 0 -10 5 -18 10 -18 6
0 10 -6 10 -14 0 -8 7 -16 15 -20 8 -3 15 -1 15 4 0 6 5 10 11 10 6 0 9 -9 6
-20 -3 -12 0 -20 8 -20 7 0 15 -6 18 -14 4 -9 14 -12 27 -9 19 5 22 2 20 -23
-2 -37 10 -75 21 -68 17 10 9 -9 -8 -21 -17 -13 -17 -14 1 -34 10 -11 19 -32
19 -46 0 -14 4 -25 9 -25 5 0 7 -4 3 -9 -3 -5 -1 -12 5 -16 11 -7 14 -48 4
-58 -4 -3 -16 -1 -27 5 -36 19 -247 9 -400 -18 -48 -9 -96 -14 -107 -11 -11 3
-20 1 -20 -4 0 -5 -11 -11 -24 -15 -14 -3 -33 -17 -43 -32 -10 -14 -29 -36
-43 -50 -22 -21 -23 -25 -9 -36 11 -7 18 -32 22 -71 7 -93 17 -105 91 -105 21
0 27 -4 22 -15 -4 -11 2 -15 24 -15 23 0 28 -4 23 -16 -4 -11 -8 -12 -13 -4
-4 7 -10 8 -13 4 -11 -19 53 -74 93 -80 8 -1 44 -10 80 -19 51 -13 88 -15 172
-10 59 4 105 11 102 16 -3 5 -17 9 -32 10 -25 0 -25 1 8 13 28 11 35 18 35 39
-1 23 3 26 30 25 35 -1 75 10 75 21 0 5 -15 13 -32 19 -32 10 -33 10 -6 11 27
1 27 2 21 49 -7 56 -8 58 -57 115 -23 27 -44 43 -52 40 -8 -3 -14 0 -14 5 0 6
-8 12 -17 14 -10 2 5 5 34 5 32 1 56 -3 63 -12 6 -7 20 -10 32 -7 18 4 20 2
16 -16 -4 -12 -2 -25 3 -28 5 -3 9 -14 9 -24 0 -11 9 -24 20 -30 16 -9 20 -21
20 -65 0 -38 4 -54 12 -52 7 1 14 -9 16 -23 2 -14 8 -27 12 -30 4 -3 10 -54
14 -115 5 -105 11 -168 17 -190 3 -9 0 -35 -17 -147 -4 -24 -11 -38 -20 -38
-11 0 -14 -10 -12 -37 1 -21 6 -41 11 -44 6 -4 0 -17 -12 -30 -16 -17 -21 -32
-17 -51 4 -21 1 -28 -9 -28 -8 0 -15 -4 -15 -8 0 -5 -11 -14 -25 -20 -17 -8
-25 -20 -25 -36 0 -14 -4 -27 -8 -30 -20 -12 -28 15 -28 89 0 109 -21 144
-104 175 -33 12 -60 26 -60 30 0 3 -12 13 -27 21 -16 7 -63 44 -106 81 -75 65
-113 85 -101 53 4 -8 10 -12 15 -9 5 3 9 1 9 -5 0 -6 18 -29 40 -53 22 -24 46
-55 52 -70 7 -16 16 -28 20 -28 5 0 8 -7 8 -15 0 -8 5 -15 10 -15 6 0 10 -5
10 -10 0 -6 -18 -9 -41 -8 -27 2 -43 -2 -46 -9 -3 -7 2 -13 10 -13 8 0 18 -12
21 -26 5 -17 12 -24 21 -20 8 3 17 1 20 -4 4 -6 14 -10 24 -10 10 0 22 -13 29
-33 16 -46 15 -53 -8 -53 -13 0 -19 5 -16 13 3 8 -2 13 -14 13 -11 0 -20 -4
-20 -10 0 -5 -9 -10 -20 -10 -12 0 -34 -7 -51 -15 -24 -13 -37 -14 -72 -4
-101 27 -257 39 -319 23 -40 -11 -58 -10 -104 2 -67 17 -112 18 -205 2 -64
-11 -72 -11 -84 5 -7 9 -17 17 -24 17 -22 0 -10 15 27 33 21 10 61 19 90 19
40 1 52 5 48 15 -3 8 2 13 14 13 11 0 20 -4 20 -10 0 -5 17 -10 38 -10 28 0
45 -7 62 -25 13 -14 38 -29 54 -33 32 -8 87 5 108 26 7 7 18 12 26 12 23 0
112 34 112 42 0 5 9 3 20 -4 16 -11 22 -9 34 7 8 11 12 27 11 37 -2 11 2 18
11 18 8 0 14 5 14 11 0 5 -8 9 -17 8 -36 -3 -63 1 -63 11 0 6 5 10 11 10 6 0
17 7 26 16 9 8 21 13 27 11 7 -3 12 9 13 30 1 19 7 41 13 48 9 10 8 19 -2 37
-13 22 -13 22 -16 -14 -4 -45 -16 -50 -78 -34 -34 8 -52 19 -59 34 -12 27 -28
27 -110 1 -63 -21 -65 -21 -92 -3 -16 11 -49 26 -75 35 -45 15 -48 15 -53 -2
-4 -11 -13 -19 -21 -19 -8 0 -14 -4 -14 -9 0 -14 -63 -19 -83 -7 -14 8 -17 19
-12 44 8 43 -18 42 -43 -3 -11 -19 -11 -19 -12 -1 0 14 -3 16 -13 8 -7 -6 -24
-12 -37 -14 -14 -2 -35 -13 -48 -26 -12 -12 -29 -22 -37 -22 -8 0 -15 -5 -15
-10 0 -6 -22 -22 -50 -38 -27 -15 -50 -33 -50 -39 0 -7 -13 -19 -30 -28 -28
-14 -34 -13 -31 8 0 4 -7 7 -17 7 -10 0 -26 13 -35 30 -12 20 -23 27 -34 23
-12 -5 -15 -2 -10 10 4 11 1 17 -7 17 -10 0 -12 7 -8 22 3 13 1 19 -5 15 -21
-13 -33 18 -22 54 6 19 10 70 10 114 0 44 4 82 10 86 6 3 12 15 14 25 2 10 4
21 4 23 1 2 9 -3 19 -10 15 -12 16 -12 5 1 -14 19 -17 48 -8 78 9 29 31 28 50
-2 10 -15 30 -26 58 -31 l42 -8 -42 -10 c-53 -12 -56 -25 -5 -25 20 0 75 -3
122 -7 85 -7 106 -4 254 38 43 12 47 15 25 20 -14 3 -34 4 -46 1 -18 -5 -21
-3 -16 15 6 24 -15 28 -48 11 -15 -8 -19 -8 -17 2 2 9 -15 15 -52 19 l-55 6
49 1 c50 2 86 22 86 49 0 8 4 12 9 9 5 -4 11 0 14 6 3 10 10 8 23 -5 19 -18
19 -19 0 -33 -11 -8 -28 -14 -38 -14 -11 0 -18 -7 -17 -17 0 -11 3 -13 6 -5 3
8 29 12 79 12 70 0 74 -1 75 -22 0 -22 1 -22 12 2 6 14 12 26 13 28 0 1 9 -1
18 -4 11 -4 16 -14 13 -25 -3 -12 1 -17 14 -16 10 1 16 3 14 5 -2 3 2 11 10
19 8 8 15 25 15 38 0 13 4 26 9 29 4 3 11 26 14 51 10 72 32 105 68 105 20 0
29 4 26 13 -2 6 3 17 12 24 22 17 -1 17 -46 1 -33 -12 -34 -11 -77 35 -23 26
-51 47 -62 47 -11 0 -39 11 -64 24 -40 21 -93 36 -141 41 -9 1 -22 5 -28 10
-7 4 -54 9 -104 11 -51 2 -110 7 -133 9 -38 5 -41 8 -36 32 7 36 32 63 60 63
13 0 20 -4 17 -10 -8 -13 18 -13 49 2 34 15 40 39 22 80 -9 18 -14 24 -13 14
1 -10 -4 -21 -10 -23 -8 -3 -13 4 -13 16 0 14 8 23 25 27 28 7 31 14 13 32 -9
9 -8 13 5 17 9 4 13 13 11 20 -3 7 11 29 31 48 21 20 44 51 54 69 9 18 25 37
36 43 53 27 61 34 46 44 -11 7 -4 14 28 31 24 12 49 19 56 16 7 -2 28 10 47
27 33 33 65 37 75 11z m75 17 c-12 -7 -62 -4 -62 5 0 2 17 4 38 4 23 0 32 -3
24 -9z m-1412 -71 c0 -5 -2 -10 -4 -10 -3 0 -8 5 -11 10 -3 6 -1 10 4 10 6 0
11 -4 11 -10z m3298 -75 c-9 -9 -30 14 -23 25 6 9 10 8 17 -4 6 -10 8 -19 6
-21z m-90 -126 c12 -19 11 -20 -10 -17 -12 2 -24 11 -26 21 -5 24 20 21 36 -4z
m-2285 -46 c-7 -2 -13 -11 -13 -19 0 -8 -4 -14 -10 -14 -5 0 -10 -7 -10 -15 0
-8 -9 -15 -20 -15 -11 0 -20 -7 -20 -15 0 -19 -19 -20 -26 -1 -6 16 37 64 53
59 5 -2 16 3 23 12 7 8 18 15 24 14 7 0 6 -2 -1 -6z m-34 -116 c0 -21 -1 -21
-9 -2 -12 28 -12 37 0 30 6 -3 10 -16 9 -28z m2441 -8 c0 -6 -4 -7 -10 -4 -5
3 -10 11 -10 16 0 6 5 7 10 4 6 -3 10 -11 10 -16z m27 -21 c-3 -8 -6 -5 -6 6
-1 11 2 17 5 13 3 -3 4 -12 1 -19z m-47 -73 c0 -8 -2 -15 -4 -15 -2 0 -6 7
-10 15 -3 8 -1 15 4 15 6 0 10 -7 10 -15z m28 -125 c3 -7 0 -10 -7 -6 -6 4
-11 1 -11 -6 0 -10 -3 -9 -9 2 -6 8 -7 18 -4 23 7 11 26 4 31 -13z m-1073 0
c-3 -5 -12 -7 -20 -3 -21 7 -19 13 6 13 11 0 18 -4 14 -10z m1035 -40 c0 -5
-4 -10 -10 -10 -5 0 -10 5 -10 10 0 6 5 10 10 10 6 0 10 -4 10 -10z m-3544
-46 c8 -31 -12 -57 -26 -34 -14 22 -12 30 6 30 14 0 14 3 4 15 -8 10 -9 15 -1
15 6 0 14 -12 17 -26z m3484 6 c0 -5 -2 -10 -4 -10 -3 0 -8 5 -11 10 -3 6 -1
10 4 10 6 0 11 -4 11 -10z m-2205 -50 c6 -9 -25 -13 -102 -14 -12 0 -19 -4
-17 -8 7 -11 -8 -10 -25 1 -12 8 -8 11 15 16 16 4 34 8 39 10 23 8 84 4 90 -5z
m23 -31 c29 -10 49 -35 37 -47 -3 -3 -5 0 -5 8 0 9 -4 9 -12 2 -9 -6 -32 -7
-67 -1 -29 4 -56 8 -60 7 -17 -2 -34 3 -28 8 7 7 78 33 93 34 6 0 25 -5 42
-11z m987 1 c16 -6 23 -14 19 -22 -4 -7 -3 -8 4 -4 7 4 19 3 28 -2 32 -18 -6
-24 -54 -8 -26 8 -65 18 -87 22 -32 6 -36 9 -20 15 29 11 79 11 110 -1z m8
-63 c31 -15 57 -29 57 -32 0 -3 -8 -1 -18 4 -9 5 -37 10 -62 12 -25 1 -49 5
-55 8 -5 3 -22 6 -37 7 -40 2 -60 12 -52 25 11 18 104 5 167 -24z m-2273 -107
c0 -5 -4 -10 -9 -10 -6 0 -13 5 -16 10 -3 6 1 10 9 10 9 0 16 -4 16 -10z
m2178 -37 c-10 -2 -28 -2 -40 0 -13 2 -5 4 17 4 22 1 32 -1 23 -4z m89 -8 c-5
-11 1 -13 26 -10 28 4 29 4 7 -4 -14 -5 -35 -9 -48 -10 -20 -1 -21 1 -10 19
15 23 33 27 25 5z m1263 -46 c0 -11 -4 -18 -10 -14 -5 3 -7 12 -3 20 7 21 13
19 13 -6z m-2178 -432 c1 -29 2 -60 1 -69 0 -10 6 -18 14 -18 20 0 16 -24 -7
-38 -18 -11 -22 -10 -30 10 -8 20 -9 21 -9 4 -1 -20 -1 -20 -15 0 -8 10 -11
23 -6 28 15 15 -1 36 -27 36 -20 0 -24 4 -20 20 3 11 1 20 -5 20 -5 0 -7 4 -3
9 3 5 1 12 -4 15 -5 3 -12 -5 -15 -19 -6 -24 -26 -36 -26 -15 0 6 6 10 13 10
8 0 7 3 -3 10 -23 14 17 53 47 45 15 -3 30 0 39 10 12 11 20 12 35 5 15 -8 19
-23 21 -63z m-425 21 c-3 -8 -6 -5 -6 6 -1 11 2 17 5 13 3 -3 4 -12 1 -19z
m-742 -38 c-3 -5 -10 -10 -16 -10 -5 0 -9 5 -9 10 0 6 7 10 16 10 8 0 12 -4 9
-10z m1575 -40 c0 -5 -4 -10 -10 -10 -5 0 -10 5 -10 10 0 6 5 10 10 10 6 0 10
-4 10 -10z m530 -37 c16 -9 31 -26 34 -37 10 -37 6 -135 -5 -142 -12 -7 -31
15 -23 28 3 4 -6 41 -20 82 -34 99 -34 98 14 69z m400 -37 c0 -3 -4 -8 -10
-11 -5 -3 -10 -1 -10 4 0 6 5 11 10 11 6 0 10 -2 10 -4z m-2480 -115 c0 -5 -6
-12 -12 -14 -8 -3 -5 -6 6 -6 12 -1 16 -6 12 -17 -3 -9 -6 -22 -6 -30 0 -9 -5
-12 -10 -9 -6 4 -8 10 -5 15 3 4 0 10 -7 12 -13 5 -3 58 12 58 6 0 10 -4 10
-9z m857 -59 c29 -36 70 -51 84 -30 7 11 39 -1 39 -14 0 -5 7 -17 16 -26 15
-15 16 -14 9 7 -6 21 -5 21 14 9 12 -7 24 -21 27 -30 3 -10 9 -18 13 -18 5 0
14 -15 21 -32 8 -18 20 -41 28 -51 12 -14 13 -20 3 -30 -10 -9 -11 -8 -6 6 5
12 2 17 -9 17 -9 0 -16 5 -16 10 0 6 -4 10 -10 10 -5 0 -10 -7 -10 -15 0 -8
-7 -15 -15 -15 -8 0 -15 -5 -15 -11 0 -7 10 -9 24 -7 l24 5 -19 -34 c-11 -19
-17 -38 -14 -44 11 -16 -10 -10 -26 9 -8 9 -26 25 -39 34 -20 14 -22 17 -7 17
24 1 22 32 -3 38 -11 3 -20 9 -20 14 0 5 -12 9 -27 10 l-28 1 25 8 c23 7 23 8
6 15 -11 5 -26 4 -36 -3 -15 -9 -20 -5 -36 29 -11 21 -22 39 -26 39 -11 0 -25
86 -19 115 3 13 21 1 48 -33z m1235 -3 c-5 -33 -43 -112 -59 -122 -7 -4 -13
-15 -13 -24 0 -10 -6 -14 -20 -10 -11 3 -20 2 -20 -3 0 -4 -10 -10 -22 -14
-17 -4 -20 -8 -10 -15 11 -6 10 -11 -4 -25 -14 -15 -15 -19 -3 -27 11 -7 10
-9 -6 -10 -11 -1 -28 -2 -37 -1 -12 1 -18 -5 -18 -18 0 -11 -7 -20 -15 -20
-15 0 -18 -7 -18 -42 0 -11 -7 -18 -19 -18 -14 0 -18 -5 -15 -15 4 -8 2 -17
-4 -21 -6 -3 -8 -11 -6 -17 2 -7 -5 -20 -16 -29 -17 -16 -18 -18 -3 -18 18 0
16 -4 -25 -49 -8 -9 -14 -22 -12 -28 5 -15 -34 -36 -48 -27 -6 4 -15 0 -20 -7
-7 -11 -9 -9 -9 6 0 17 -2 17 -10 5 -5 -8 -10 -11 -10 -6 0 5 -6 3 -14 -3 -10
-9 -16 -8 -26 4 -7 8 -17 12 -23 8 -7 -4 -8 2 -3 18 8 28 15 60 9 42 -4 -12
-33 -19 -33 -9 0 2 -3 12 -7 22 -4 11 -3 15 5 10 6 -3 13 -2 17 4 4 6 11 8 16
5 5 -3 6 1 3 9 -3 9 5 21 20 31 14 10 26 22 26 28 0 12 60 67 73 67 4 0 7 7 7
15 0 9 6 12 18 8 12 -4 10 1 -7 15 -13 12 -19 22 -12 22 7 0 10 4 6 9 -3 6
-25 8 -48 5 -23 -3 -58 -6 -79 -7 -20 -1 -34 -5 -31 -9 2 -5 -3 -8 -11 -8 -9
0 -16 8 -16 17 0 13 -3 14 -12 5 -15 -15 -38 -16 -38 -2 0 6 7 10 15 10 8 0
15 8 15 17 0 13 -3 14 -12 5 -7 -7 -20 -12 -30 -12 -10 0 -18 -4 -18 -9 0 -15
-52 -24 -60 -10 -4 6 -13 8 -19 4 -7 -4 -19 -1 -27 6 -13 10 -17 10 -24 -1 -7
-12 -10 -12 -15 2 -5 13 -13 14 -38 7 -18 -5 -33 -9 -34 -9 -2 0 -3 20 -3 45
0 34 5 47 20 55 19 10 19 12 5 27 -22 21 -17 97 7 101 10 2 23 -8 32 -25 l15
-28 11 33 c11 28 16 32 50 32 21 0 43 -7 50 -15 10 -12 15 -12 33 -1 37 23 74
27 91 11 18 -19 24 -19 43 0 12 12 18 13 29 4 8 -6 14 -18 14 -25 0 -18 8 -18
26 1 9 8 24 15 34 15 15 0 17 -6 13 -40 -4 -26 -1 -46 8 -56 11 -14 10 -19 -7
-33 -23 -19 -28 -51 -7 -51 7 0 13 5 13 11 0 6 9 8 20 4 15 -5 20 -2 20 14 0
11 8 22 18 25 11 4 25 17 32 31 14 26 31 39 97 76 24 13 39 17 41 10 2 -6 12
-11 22 -11 10 0 20 -5 22 -10 2 -6 21 8 43 29 44 43 62 46 57 10z m98 16 c9
-11 9 -21 -1 -44 -7 -16 -17 -27 -21 -25 -4 3 -8 -2 -8 -11 0 -9 -6 -15 -12
-12 -16 5 -13 53 3 85 14 26 22 27 39 7z m764 -17 c-9 -14 -23 2 -17 18 4 12
8 13 14 3 4 -7 5 -17 3 -21z m-65 -24 c1 -1 -10 -2 -27 -2 -16 1 -34 -2 -41
-6 -18 -11 -13 6 6 19 16 12 40 7 62 -11z m-1667 -22 c5 -19 -17 -60 -28 -50
-3 4 -8 25 -11 48 -6 40 -5 42 14 31 11 -5 23 -19 25 -29z m552 -25 c7 -6 5
-7 -5 -4 -9 3 -22 0 -28 -6 -18 -18 -21 -2 -4 23 13 18 18 20 21 9 3 -8 10
-18 16 -22z m-1719 -27 c-3 -5 -10 -10 -16 -10 -5 0 -9 5 -9 10 0 6 7 10 16
10 8 0 12 -4 9 -10z m145 -10 c-8 -6 -12 -10 -8 -10 3 0 -3 -11 -15 -24 -20
-23 -47 -25 -47 -4 0 5 4 7 9 3 5 -3 13 4 16 16 4 11 16 24 28 28 26 10 37 4
17 -9z m-75 0 c-3 -5 -13 -10 -21 -10 -8 0 -12 -4 -9 -10 3 -5 1 -10 -4 -10
-17 0 -13 18 7 29 22 13 35 14 27 1z m125 -4 c0 -8 -7 -16 -15 -20 -12 -4 -13
-2 -2 14 14 24 17 25 17 6z m920 -86 c0 -5 -4 -10 -10 -10 -5 0 -10 5 -10 10
0 6 5 10 10 10 6 0 10 -4 10 -10z m-50 -200 c0 -5 -7 -10 -15 -10 -8 0 -15 5
-15 10 0 6 7 10 15 10 8 0 15 -4 15 -10z m475 0 c-3 -5 -11 -10 -16 -10 -6 0
-7 5 -4 10 3 6 11 10 16 10 6 0 7 -4 4 -10z m-415 -32 c0 -4 10 -8 23 -8 13 0
28 -5 35 -12 6 -6 34 -11 62 -9 42 2 50 -1 51 -16 0 -10 3 -13 6 -5 8 21 23
13 23 -13 0 -24 -31 -51 -44 -38 -10 10 -7 25 4 18 6 -3 10 -1 10 5 0 12 -37
9 -60 -5 -23 -14 -43 -15 -58 -2 -11 8 -13 8 -10 -4 1 -7 0 -14 -3 -14 -3 0
-13 -6 -22 -13 -10 -8 -17 -9 -21 -3 -4 6 -13 8 -21 4 -8 -3 -15 0 -15 6 0 6
8 12 18 12 15 1 15 2 -1 6 -28 7 -57 40 -57 64 0 11 5 17 10 14 6 -3 10 0 10
8 0 9 11 14 30 14 17 0 30 -4 30 -9z m400 -8 c0 -5 -2 -10 -4 -10 -3 0 -8 5
-11 10 -3 6 -1 10 4 10 6 0 11 -4 11 -10z m-1420 -4 c0 -3 -4 -8 -10 -11 -5
-3 -10 -1 -10 4 0 6 5 11 10 11 6 0 10 -2 10 -4z m1270 -36 c0 -5 -4 -10 -10
-10 -5 0 -10 5 -10 10 0 6 5 10 10 10 6 0 10 -4 10 -10z m-100 -75 c0 -5 -4
-4 -9 4 -5 7 -14 10 -20 7 -6 -4 -11 -3 -11 3 0 5 6 11 13 14 12 4 27 -10 27
-28z m240 15 c0 -5 -8 -10 -17 -10 -15 0 -16 2 -3 10 19 12 20 12 20 0z m27
-26 c-3 -3 -12 -4 -19 -1 -8 3 -5 6 6 6 11 1 17 -2 13 -5z m-1357 -14 c0 -5
-2 -10 -4 -10 -3 0 -8 5 -11 10 -3 6 -1 10 4 10 6 0 11 -4 11 -10z m1020 -9
c0 -6 -4 -13 -10 -16 -5 -3 -10 1 -10 9 0 9 5 16 10 16 6 0 10 -4 10 -9z
m-975 -81 c-3 -5 -12 -10 -18 -10 -7 0 -6 4 3 10 19 12 23 12 15 0z m98 -127
c-7 -2 -19 -2 -25 0 -7 3 -2 5 12 5 14 0 19 -2 13 -5z m-118 -39 c-9 -9 -19
-13 -23 -10 -3 4 0 11 8 16 24 15 33 11 15 -6z m2119 -93 c3 -5 0 -11 -8 -14
-15 -6 -26 1 -26 15 0 11 27 10 34 -1z"/>
<path d="M2380 5379 c0 -5 5 -7 10 -4 6 3 10 8 10 11 0 2 -4 4 -10 4 -5 0 -10
-5 -10 -11z"/>
<path d="M1560 4215 c-16 -19 -1 -39 22 -30 10 4 14 14 11 26 -6 23 -16 24
-33 4z"/>
<path d="M2705 4201 c-3 -5 -1 -12 5 -16 5 -3 10 1 10 9 0 18 -6 21 -15 7z"/>
<path d="M2575 4171 c-3 -5 -1 -12 5 -16 5 -3 10 1 10 9 0 18 -6 21 -15 7z"/>
<path d="M1550 4156 c0 -15 18 -31 26 -23 7 7 -7 37 -17 37 -5 0 -9 -6 -9 -14z"/>
<path d="M1740 3550 c0 -5 7 -10 16 -10 8 0 12 5 9 10 -3 6 -10 10 -16 10 -5
0 -9 -4 -9 -10z"/>
<path d="M1877 3353 c-9 -17 -26 -38 -38 -46 -13 -9 -16 -17 -10 -22 6 -3 11
-17 11 -31 0 -13 5 -24 11 -24 6 0 9 6 6 14 -6 16 13 77 32 100 7 8 11 21 9
28 -3 8 -12 -1 -21 -19z"/>
<path d="M2431 2911 c-6 -11 -11 -26 -11 -33 0 -17 43 -45 48 -30 1 5 13 7 25
5 15 -4 19 -2 12 5 -5 5 -19 12 -30 14 -14 2 -19 10 -17 25 4 29 -14 38 -27
14z"/>
<path d="M2820 2894 c0 -8 5 -12 10 -9 6 4 8 11 5 16 -9 14 -15 11 -15 -7z"/>
<path d="M2368 2893 c7 -3 16 -2 19 1 4 3 -2 6 -13 5 -11 0 -14 -3 -6 -6z"/>
<path d="M1671 3084 c0 -11 3 -14 6 -6 3 7 2 16 -1 19 -3 4 -6 -2 -5 -13z"/>
<path d="M1691 3004 c0 -11 3 -14 6 -6 3 7 2 16 -1 19 -3 4 -6 -2 -5 -13z"/>
<path d="M1475 2660 c-3 -5 1 -10 10 -10 9 0 13 5 10 10 -3 6 -8 10 -10 10 -2
0 -7 -4 -10 -10z"/>
<path d="M2210 2655 c0 -8 4 -15 10 -15 5 0 7 7 4 15 -4 8 -8 15 -10 15 -2 0
-4 -7 -4 -15z"/>
<path d="M1866 2621 c-5 -7 5 -12 26 -13 123 -6 148 -5 148 3 0 5 -28 9 -62 9
-35 0 -73 3 -84 6 -12 3 -25 1 -28 -5z"/>
<path d="M2120 2620 c0 -5 4 -10 9 -10 6 0 13 5 16 10 3 6 -1 10 -9 10 -9 0
-16 -4 -16 -10z"/>
<path d="M2220 2540 c0 -5 5 -10 11 -10 5 0 7 5 4 10 -3 6 -8 10 -11 10 -2 0
-4 -4 -4 -10z"/>
<path d="M2295 2260 c-10 -11 -13 -20 -7 -20 6 0 14 5 17 10 4 6 11 8 16 5 5
-3 6 1 3 9 -8 20 -7 20 -29 -4z"/>
<path d="M1695 5550 c-7 -11 9 -11 45 0 24 8 24 8 -7 9 -17 1 -35 -3 -38 -9z"/>
<path d="M1657 5533 c-10 -9 -8 -43 2 -43 5 0 11 11 13 25 5 24 -2 32 -15 18z"/>
<path d="M2687 5514 c3 -7 9 -14 14 -14 5 0 9 -11 9 -25 0 -14 5 -25 10 -25
21 0 0 64 -24 73 -10 4 -13 1 -9 -9z"/>
<path d="M1685 5500 c4 -6 11 -8 16 -5 14 9 11 15 -7 15 -8 0 -12 -5 -9 -10z"/>
<path d="M2656 5494 c-9 -23 -7 -34 5 -34 5 0 8 4 4 9 -3 5 -1 12 5 16 12 8
13 25 1 25 -5 0 -12 -7 -15 -16z"/>
<path d="M2786 5421 c-19 -7 -19 -8 2 -13 15 -4 22 -2 22 8 0 8 -1 14 -2 13
-2 0 -12 -4 -22 -8z"/>
<path d="M3080 5305 c0 -5 5 -17 10 -25 5 -8 10 -10 10 -5 0 6 -5 17 -10 25
-5 8 -10 11 -10 5z"/>
<path d="M979 5233 c-13 -17 -13 -17 6 -3 11 8 22 16 24 17 2 2 0 3 -6 3 -6 0
-17 -8 -24 -17z"/>
<path d="M3794 4566 c1 -27 5 -42 12 -39 6 2 9 15 6 29 -3 15 0 24 8 24 10 0
10 3 0 15 -20 25 -27 17 -26 -29z"/>
<path d="M3844 4577 c3 -21 17 -38 27 -32 15 10 11 23 -10 35 -14 7 -19 6 -17
-3z"/>
<path d="M3890 4250 c0 -16 -5 -30 -11 -30 -5 0 -7 -4 -4 -10 9 -14 31 9 33
33 0 11 7 24 14 28 9 6 6 9 -9 9 -19 0 -23 -6 -23 -30z"/>
<path d="M280 4219 c0 -5 5 -7 10 -4 6 3 10 8 10 11 0 2 -4 4 -10 4 -5 0 -10
-5 -10 -11z"/>
<path d="M236 3817 c3 -10 9 -15 12 -12 3 3 0 11 -7 18 -10 9 -11 8 -5 -6z"/>
<path d="M3868 3796 c-6 -14 -16 -23 -22 -19 -6 3 -5 0 2 -8 11 -12 15 -11 26
4 15 20 33 22 38 5 3 -8 6 -9 11 -1 4 6 -4 18 -18 27 -24 16 -26 16 -37 -8z"/>
<path d="M3978 3663 c7 -3 16 -2 19 1 4 3 -2 6 -13 5 -11 0 -14 -3 -6 -6z"/>
<path d="M225 3550 c3 -5 8 -10 11 -10 2 0 4 5 4 10 0 6 -5 10 -11 10 -5 0 -7
-4 -4 -10z"/>
<path d="M3751 2901 c-1 -27 2 -32 11 -23 8 8 8 17 0 34 -10 22 -11 21 -11
-11z"/>
<path d="M438 2865 c2 -19 7 -33 11 -30 9 5 1 65 -8 65 -4 0 -5 -16 -3 -35z"/>
<path d="M690 2250 c0 -5 7 -10 15 -10 8 0 15 5 15 10 0 6 -7 10 -15 10 -8 0
-15 -4 -15 -10z"/>
<path d="M676 2215 c-19 -14 -18 -15 11 -15 18 0 33 6 37 15 7 20 -22 19 -48
0z"/>
<path d="M1432 1403 c-28 -11 -69 -63 -81 -102 -11 -38 -10 -46 13 -94 37 -77
68 -109 113 -116 21 -4 39 -12 39 -19 1 -6 2 -18 3 -26 0 -8 9 -17 19 -20 10
-4 34 -21 54 -39 20 -18 53 -45 75 -60 21 -15 58 -46 83 -70 25 -23 71 -61
101 -84 30 -24 70 -61 88 -83 17 -22 40 -40 50 -40 20 0 76 73 67 88 -3 5 -35
26 -70 47 -36 21 -80 50 -97 64 -30 25 -30 27 -13 41 16 14 17 13 10 -5 -5
-15 -4 -17 5 -8 20 20 1 34 -25 18 -21 -14 -24 -13 -47 11 -17 18 -19 23 -6
18 9 -3 17 -11 17 -18 0 -6 5 -4 10 4 13 20 12 30 -2 30 -6 0 -20 8 -31 18
-15 12 -18 13 -12 2 6 -11 3 -10 -12 3 -11 9 -26 17 -33 17 -7 0 -10 3 -6 7 3
4 29 6 56 4 28 -1 50 2 50 7 0 5 -22 19 -48 30 -27 12 -55 28 -62 37 -7 8 -16
15 -21 15 -18 0 -79 45 -85 63 -4 12 -12 15 -30 11 -17 -4 -24 -2 -24 8 0 7
-10 18 -22 23 -13 6 -25 21 -27 35 -1 14 -8 28 -13 31 -19 12 0 41 22 34 17
-5 14 2 -15 47 -53 82 -58 85 -93 71z"/>
<path d="M1008 1283 c39 -88 44 -95 54 -85 7 7 1 24 -21 56 -33 47 -46 59 -33
29z"/>
<path d="M1107 1214 c-3 -3 -3 -12 0 -20 4 -10 0 -12 -11 -8 -22 8 -20 0 10
-51 14 -25 45 -57 73 -74 48 -31 65 -48 115 -113 16 -21 35 -38 42 -38 8 0 14
-4 14 -10 0 -5 8 -10 19 -10 10 0 49 -14 86 -31 37 -16 69 -28 72 -25 3 2 -4
15 -16 27 -12 13 -21 30 -21 40 0 22 -24 41 -43 34 -9 -4 -23 5 -36 23 -23 33
-27 72 -9 90 9 9 5 18 -17 38 -15 14 -25 19 -22 11 7 -19 -28 -48 -61 -50 -19
-2 -27 3 -30 18 -2 11 -9 25 -14 30 -8 7 -9 5 -5 -7 4 -10 2 -18 -3 -18 -13 0
-25 23 -22 43 2 9 -2 17 -7 17 -6 0 -11 -7 -11 -15 0 -8 -2 -15 -5 -15 -10 0
-43 38 -38 43 3 3 0 14 -7 24 -10 15 -11 16 -6 1 3 -10 1 -20 -3 -22 -13 -9
-37 27 -35 52 1 24 1 25 -9 16z"/>
<path d="M1620 1190 c0 -5 5 -10 11 -10 5 0 7 5 4 10 -3 6 -8 10 -11 10 -2 0
-4 -4 -4 -10z"/>
<path d="M1300 1166 c5 -13 6 -27 3 -30 -8 -8 1 -8 21 0 14 5 14 8 -1 30 -20
31 -35 31 -23 0z"/>
<path d="M1646 1155 c4 -8 13 -15 21 -15 12 0 12 2 -1 15 -8 8 -17 15 -20 15
-3 0 -3 -7 0 -15z"/>
<path d="M1330 1119 c0 -5 5 -7 10 -4 6 3 10 8 10 11 0 2 -4 4 -10 4 -5 0 -10
-5 -10 -11z"/>
<path d="M1524 1008 c3 -7 9 -21 12 -30 4 -10 10 -18 15 -18 14 0 75 -68 122
-135 50 -71 184 -211 193 -202 4 4 -24 41 -62 83 -38 42 -94 107 -124 143 -30
36 -67 79 -82 95 -15 16 -28 32 -28 37 0 11 -30 39 -42 39 -5 0 -7 -6 -4 -12z"/>
<path d="M2590 990 c0 -13 12 -56 33 -112 5 -16 13 -28 17 -28 4 0 2 17 -6 38
-7 20 -13 46 -14 57 -1 23 -30 67 -30 45z"/>
<path d="M1470 960 c0 -5 5 -10 10 -10 6 0 10 5 10 10 0 6 -4 10 -10 10 -5 0
-10 -4 -10 -10z"/>
<path d="M1525 940 c-4 -7 -3 -15 3 -19 15 -9 34 -62 28 -78 -3 -8 -2 -12 2
-9 4 2 28 -4 52 -15 l44 -20 -20 23 c-10 12 -32 37 -49 56 -16 19 -35 43 -41
54 -8 15 -13 17 -19 8z"/>
<path d="M1850 910 c-6 -11 -8 -20 -6 -20 3 0 10 9 16 20 6 11 8 20 6 20 -3 0
-10 -9 -16 -20z"/>
<path d="M1921 594 c6 -8 18 -14 26 -14 20 0 8 16 -17 23 -17 4 -19 3 -9 -9z"/>
</g>
</svg>
